<svg width="27" height="22" viewBox="0 0 27 22" fill="none" xmlns="http://www.w3.org/2000/svg">
<path d="M0.236349 6.15297C0.522076 3.08107 2.97387 0.664195 6.0439 0.359038C11.0325 -0.13682 15.0438 -0.111626 19.9504 0.388553C22.913 0.690554 25.3321 2.94896 25.6984 5.90425C26.1391 9.46007 26.1238 12.4798 25.6858 16.0289C25.3176 19.0128 22.8823 21.3033 19.8911 21.6059C14.9468 22.106 10.9684 22.1343 6.04669 21.6427C2.97517 21.336 0.525973 18.9129 0.238188 15.8396C-0.0732972 12.5131 -0.0846156 9.6037 0.236349 6.15297Z" fill="#A855F7"/>
<path d="M5.13317 7.47481C5.30978 5.72511 6.73619 4.37736 8.48741 4.21647C11.742 3.91747 14.3019 3.93292 17.5023 4.23367C19.1839 4.3917 20.5867 5.63958 20.8139 7.31328C21.0675 9.18127 21.0589 10.7841 20.8067 12.6483C20.5779 14.3394 19.1654 15.607 17.4662 15.7653C14.2392 16.0659 11.701 16.083 8.49019 15.7864C6.73743 15.6244 5.31185 14.2718 5.13398 12.5206C4.95857 10.7937 4.95254 9.2644 5.13317 7.47481Z" fill="#FCFAFF"/>
<path d="M16.4999 15.5001L16.9031 17.9189C16.9434 18.1608 16.6924 18.3462 16.4731 18.2366L11.9998 16.0003L16.4999 15.5001Z" fill="#FBF9FD"/>
<circle cx="9" cy="10" r="1" fill="#A855F7"/>
<circle cx="13" cy="10" r="1" fill="#A855F7"/>
<circle cx="17" cy="10" r="1" fill="#A855F7"/>
</svg>
