<svg width="94" height="28" viewBox="0 0 94 28" fill="none" xmlns="http://www.w3.org/2000/svg">
<path d="M0.333011 9.22373C0.667088 6.16134 3.14286 3.79053 6.20833 3.48606C12.9523 2.81623 18.1116 2.84983 24.7348 3.51819C27.6826 3.81566 30.1165 6.01698 30.5423 8.94903C31.1611 13.2106 31.1393 16.7272 30.5275 20.9806C30.1013 23.9429 27.6508 26.1781 24.6729 26.4757C17.9853 27.1441 12.87 27.1812 6.21316 26.5155C3.14537 26.2087 0.671396 23.8302 0.335237 20.7655C-0.102637 16.7735 -0.119772 13.3743 0.333011 9.22373Z" fill="#A855F7"/>
<path d="M6.14776 10.8667C6.35573 9.12748 7.79117 7.80864 9.53563 7.65021C13.8827 7.2554 17.1398 7.27553 21.4085 7.66859C23.077 7.82224 24.483 9.03377 24.7484 10.6882C25.1113 12.95 25.0988 14.8327 24.7399 17.0897C24.4738 18.7627 23.0578 19.9951 21.3708 20.1488C17.0585 20.5416 13.8303 20.5636 9.5395 20.171C7.79301 20.0112 6.35812 18.687 6.1488 16.9458C5.89681 14.8496 5.88735 13.0445 6.14776 10.8667Z" fill="#FCFAFF"/>
<path d="M19.6541 19.909L20.1502 22.6343C20.1921 22.8644 19.9354 23.0376 19.7072 22.9332L14.2937 20.4547L19.6541 19.909Z" fill="#FBF9FD"/>
<ellipse cx="10.721" cy="13.9093" rx="1.19118" ry="1.09091" fill="#A855F7"/>
<ellipse cx="15.4851" cy="13.9093" rx="1.19118" ry="1.09091" fill="#A855F7"/>
<ellipse cx="20.2498" cy="13.9093" rx="1.19118" ry="1.09091" fill="#A855F7"/>
<path d="M45.5867 21.46V23.96C44.5467 23.96 43.7134 23.84 43.0867 23.6C42.4601 23.36 41.9667 23.0133 41.6067 22.56C41.2601 22.1067 40.9801 21.5533 40.7667 20.9L40.5267 20.2C38.9401 20.1467 37.7334 19.6267 36.9067 18.64C36.0934 17.6533 35.6867 16.3133 35.6867 14.62V11.76C35.6867 10.0267 36.1134 8.66667 36.9667 7.68C37.8334 6.69333 39.1067 6.2 40.7867 6.2C42.4534 6.2 43.7201 6.69333 44.5867 7.68C45.4534 8.66667 45.8867 10.0267 45.8867 11.76V14.62C45.8867 15.9667 45.6201 17.1 45.0867 18.02C44.5667 18.9267 43.7934 19.5533 42.7667 19.9C42.8867 20.3267 43.0534 20.6533 43.2667 20.88C43.4801 21.1067 43.7667 21.26 44.1267 21.34C44.5001 21.42 44.9867 21.46 45.5867 21.46ZM43.4267 11.76C43.4267 10.6667 43.2134 9.84667 42.7867 9.3C42.3601 8.74 41.6934 8.46 40.7867 8.46C39.8801 8.46 39.2134 8.74 38.7867 9.3C38.3601 9.84667 38.1467 10.6667 38.1467 11.76V14.62C38.1467 15.7133 38.3601 16.54 38.7867 17.1C39.2134 17.66 39.8801 17.94 40.7867 17.94C41.6934 17.94 42.3601 17.66 42.7867 17.1C43.2134 16.54 43.4267 15.7133 43.4267 14.62V11.76ZM54.7997 20V18.66C54.1864 19.1933 53.613 19.5867 53.0797 19.84C52.5464 20.08 52.0064 20.2 51.4597 20.2C50.553 20.2 49.853 19.8933 49.3597 19.28C48.8664 18.6533 48.6197 17.78 48.6197 16.66V9.86H50.9197V16.38C50.9197 17.5 51.333 18.06 52.1597 18.06C52.493 18.06 52.853 17.98 53.2397 17.82C53.6397 17.66 54.1197 17.3533 54.6797 16.9V9.86H56.9797V20H54.7997ZM62.5064 7.94H60.0864V5.56H62.5064V7.94ZM62.4464 20H60.1464V9.86H62.4464V20ZM69.9552 20.2C69.6218 20.2 69.2818 20.1667 68.9352 20.1C68.6018 20.0333 68.2618 19.94 67.9152 19.82V24.26H65.6152V9.86H67.7952V11.24C68.4218 10.6133 68.9552 10.1933 69.3952 9.98C69.8352 9.76667 70.2952 9.66 70.7752 9.66C71.8818 9.66 72.7352 10.0733 73.3352 10.9C73.9352 11.7267 74.2352 12.8867 74.2352 14.38V15.46C74.2352 16.9133 73.8685 18.0667 73.1352 18.92C72.4018 19.7733 71.3418 20.2 69.9552 20.2ZM70.1552 11.8C69.8485 11.8 69.5218 11.8933 69.1752 12.08C68.8418 12.2533 68.4218 12.5933 67.9152 13.1V17.74C68.5685 18.0067 69.1685 18.14 69.7152 18.14C70.4885 18.14 71.0418 17.9 71.3752 17.42C71.7085 16.94 71.8752 16.2867 71.8752 15.46V14.38C71.8752 13.4867 71.7218 12.8333 71.4152 12.42C71.1218 12.0067 70.7018 11.8 70.1552 11.8ZM81.2442 20.2C80.9109 20.2 80.5709 20.1667 80.2242 20.1C79.8909 20.0333 79.5509 19.94 79.2042 19.82V24.26H76.9042V9.86H79.0842V11.24C79.7109 10.6133 80.2442 10.1933 80.6842 9.98C81.1242 9.76667 81.5842 9.66 82.0642 9.66C83.1709 9.66 84.0242 10.0733 84.6242 10.9C85.2242 11.7267 85.5242 12.8867 85.5242 14.38V15.46C85.5242 16.9133 85.1576 18.0667 84.4242 18.92C83.6909 19.7733 82.6309 20.2 81.2442 20.2ZM81.4442 11.8C81.1376 11.8 80.8109 11.8933 80.4642 12.08C80.1309 12.2533 79.7109 12.5933 79.2042 13.1V17.74C79.8576 18.0067 80.4576 18.14 81.0042 18.14C81.7776 18.14 82.3309 17.9 82.6642 17.42C82.9976 16.94 83.1642 16.2867 83.1642 15.46V14.38C83.1642 13.4867 83.0109 12.8333 82.7042 12.42C82.4109 12.0067 81.9909 11.8 81.4442 11.8Z" fill="#A855F7"/>
<path d="M45.5867 21.46H45.8867V21.16H45.5867V21.46ZM45.5867 23.96V24.26H45.8867V23.96H45.5867ZM43.0867 23.6L43.194 23.3198L43.194 23.3198L43.0867 23.6ZM41.6067 22.56L41.3684 22.7423L41.3718 22.7466L41.6067 22.56ZM40.7667 20.9L41.0519 20.8069L41.0505 20.8027L40.7667 20.9ZM40.5267 20.2L40.8105 20.1027L40.7434 19.9071L40.5368 19.9002L40.5267 20.2ZM36.9067 18.64L36.6752 18.8308L36.6768 18.8327L36.9067 18.64ZM36.9667 7.68L36.7413 7.48201L36.7398 7.48375L36.9667 7.68ZM44.5867 7.68L44.8121 7.48202L44.8121 7.48202L44.5867 7.68ZM45.0867 18.02L44.8272 17.8695L44.8265 17.8707L45.0867 18.02ZM42.7667 19.9L42.6707 19.6158L42.4008 19.7069L42.4779 19.9812L42.7667 19.9ZM43.2667 20.88L43.4852 20.6744L43.4852 20.6744L43.2667 20.88ZM44.1267 21.34L44.0616 21.6329L44.0639 21.6333L44.1267 21.34ZM42.7867 9.3L42.5481 9.48182L42.5502 9.48458L42.7867 9.3ZM38.7867 9.3L39.0232 9.48459L39.0253 9.48181L38.7867 9.3ZM38.7867 17.1L39.0253 16.9182L39.0253 16.9182L38.7867 17.1ZM42.7867 17.1L42.5481 16.9182L42.5481 16.9182L42.7867 17.1ZM45.2867 21.46V23.96H45.8867V21.46H45.2867ZM45.5867 23.66C44.5654 23.66 43.7729 23.5416 43.194 23.3198L42.9794 23.8802C43.6538 24.1384 44.528 24.26 45.5867 24.26V23.66ZM43.194 23.3198C42.6094 23.096 42.1632 22.7784 41.8417 22.3734L41.3718 22.7466C41.7702 23.2483 42.3107 23.624 42.9794 23.8802L43.194 23.3198ZM41.845 22.3778C41.5226 21.9561 41.2568 21.4344 41.0519 20.8069L40.4815 20.9931C40.7033 21.6722 40.9975 22.2572 41.3684 22.7422L41.845 22.3778ZM41.0505 20.8027L40.8105 20.1027L40.2429 20.2973L40.4829 20.9973L41.0505 20.8027ZM40.5368 19.9002C39.0139 19.849 37.8962 19.3538 37.1367 18.4473L36.6768 18.8327C37.5706 19.8995 38.8663 20.4444 40.5166 20.4998L40.5368 19.9002ZM37.1382 18.4492C36.3817 17.5315 35.9867 16.2664 35.9867 14.62H35.3867C35.3867 16.3602 35.805 17.7752 36.6752 18.8308L37.1382 18.4492ZM35.9867 14.62V11.76H35.3867V14.62H35.9867ZM35.9867 11.76C35.9867 10.0747 36.4011 8.79264 37.1936 7.87624L36.7398 7.48375C35.8257 8.54069 35.3867 9.97859 35.3867 11.76H35.9867ZM37.1921 7.87798C37.9868 6.97331 39.1672 6.5 40.7867 6.5V5.9C39.0462 5.9 37.68 6.41336 36.7413 7.48202L37.1921 7.87798ZM40.7867 6.5C42.392 6.5 43.5662 6.97279 44.3613 7.87798L44.8121 7.48202C43.8739 6.41387 42.5148 5.9 40.7867 5.9V6.5ZM44.3613 7.87798C45.1663 8.79439 45.5867 10.0758 45.5867 11.76H46.1867C46.1867 9.97751 45.7405 8.53894 44.8121 7.48202L44.3613 7.87798ZM45.5867 11.76V14.62H46.1867V11.76H45.5867ZM45.5867 14.62C45.5867 15.9277 45.3278 17.0059 44.8272 17.8695L45.3463 18.1705C45.9123 17.1941 46.1867 16.0057 46.1867 14.62H45.5867ZM44.8265 17.8707C44.3444 18.7114 43.6308 19.2916 42.6707 19.6158L42.8627 20.1842C43.956 19.8151 44.7891 19.142 45.347 18.1693L44.8265 17.8707ZM42.4779 19.9812C42.6058 20.4359 42.7908 20.812 43.0483 21.0856L43.4852 20.6744C43.316 20.4946 43.1676 20.2174 43.0555 19.8188L42.4779 19.9812ZM43.0483 21.0856C43.31 21.3637 43.654 21.5423 44.0616 21.6329L44.1918 21.0471C43.8794 20.9777 43.6501 20.8497 43.4852 20.6744L43.0483 21.0856ZM44.0639 21.6333C44.4661 21.7195 44.9761 21.76 45.5867 21.76V21.16C44.9973 21.16 44.534 21.1205 44.1896 21.0467L44.0639 21.6333ZM43.7267 11.76C43.7267 10.6359 43.5088 9.73755 43.0232 9.11542L42.5502 9.48458C42.918 9.95578 43.1267 10.6974 43.1267 11.76H43.7267ZM43.0253 9.11819C42.5262 8.46302 41.7575 8.16 40.7867 8.16V8.76C41.6293 8.76 42.1939 9.01698 42.5481 9.48181L43.0253 9.11819ZM40.7867 8.16C39.8159 8.16 39.0473 8.46302 38.5481 9.11819L39.0253 9.48181C39.3795 9.01698 39.9442 8.76 40.7867 8.76V8.16ZM38.5502 9.11542C38.0647 9.73755 37.8467 10.6359 37.8467 11.76H38.4467C38.4467 10.6974 38.6554 9.95578 39.0232 9.48458L38.5502 9.11542ZM37.8467 11.76V14.62H38.4467V11.76H37.8467ZM37.8467 14.62C37.8467 15.7449 38.065 16.6477 38.5481 17.2818L39.0253 16.9182C38.6551 16.4323 38.4467 15.6818 38.4467 14.62H37.8467ZM38.5481 17.2818C39.0473 17.937 39.8159 18.24 40.7867 18.24V17.64C39.9442 17.64 39.3795 17.383 39.0253 16.9182L38.5481 17.2818ZM40.7867 18.24C41.7575 18.24 42.5262 17.937 43.0253 17.2818L42.5481 16.9182C42.1939 17.383 41.6293 17.64 40.7867 17.64V18.24ZM43.0253 17.2818C43.5085 16.6477 43.7267 15.7449 43.7267 14.62H43.1267C43.1267 15.6818 42.9183 16.4323 42.5481 16.9182L43.0253 17.2818ZM43.7267 14.62V11.76H43.1267V14.62H43.7267ZM54.7997 20H54.4997V20.3H54.7997V20ZM54.7997 18.66H55.0997V18.0016L54.6028 18.4336L54.7997 18.66ZM53.0797 19.84L53.2028 20.1136L53.2084 20.111L53.0797 19.84ZM49.3597 19.28L49.124 19.4656L49.1259 19.468L49.3597 19.28ZM48.6197 9.86V9.56H48.3197V9.86H48.6197ZM50.9197 9.86H51.2197V9.56H50.9197V9.86ZM53.2397 17.82L53.1283 17.5414L53.125 17.5428L53.2397 17.82ZM54.6797 16.9L54.8684 17.1332L54.9797 17.0431V16.9H54.6797ZM54.6797 9.86V9.56H54.3797V9.86H54.6797ZM56.9797 9.86H57.2797V9.56H56.9797V9.86ZM56.9797 20V20.3H57.2797V20H56.9797ZM55.0997 20V18.66H54.4997V20H55.0997ZM54.6028 18.4336C54.0029 18.9553 53.4524 19.3308 52.951 19.569L53.2084 20.111C53.7737 19.8425 54.3698 19.4314 54.9965 18.8864L54.6028 18.4336ZM52.9566 19.5664C52.4592 19.7902 51.961 19.9 51.4597 19.9V20.5C52.0517 20.5 52.6335 20.3698 53.2028 20.1136L52.9566 19.5664ZM51.4597 19.9C50.6284 19.9 50.0208 19.6232 49.5935 19.092L49.1259 19.468C49.6853 20.1634 50.4777 20.5 51.4597 20.5V19.9ZM49.5954 19.0944C49.1577 18.5384 48.9197 17.7394 48.9197 16.66H48.3197C48.3197 17.8206 48.575 18.7683 49.124 19.4656L49.5954 19.0944ZM48.9197 16.66V9.86H48.3197V16.66H48.9197ZM48.6197 10.16H50.9197V9.56H48.6197V10.16ZM50.6197 9.86V16.38H51.2197V9.86H50.6197ZM50.6197 16.38C50.6197 16.9681 50.7266 17.4636 50.9883 17.8182C51.2626 18.1897 51.6713 18.36 52.1597 18.36V17.76C51.8214 17.76 51.6101 17.6503 51.4711 17.4618C51.3194 17.2564 51.2197 16.9119 51.2197 16.38H50.6197ZM52.1597 18.36C52.541 18.36 52.9403 18.2685 53.3544 18.0972L53.125 17.5428C52.7657 17.6915 52.445 17.76 52.1597 17.76V18.36ZM53.3511 18.0985C53.7915 17.9224 54.2985 17.5945 54.8684 17.1332L54.4909 16.6668C53.9408 17.1121 53.4879 17.3976 53.1283 17.5415L53.3511 18.0985ZM54.9797 16.9V9.86H54.3797V16.9H54.9797ZM54.6797 10.16H56.9797V9.56H54.6797V10.16ZM56.6797 9.86V20H57.2797V9.86H56.6797ZM56.9797 19.7H54.7997V20.3H56.9797V19.7ZM62.5064 7.94V8.24H62.8064V7.94H62.5064ZM60.0864 7.94H59.7864V8.24H60.0864V7.94ZM60.0864 5.56V5.26H59.7864V5.56H60.0864ZM62.5064 5.56H62.8064V5.26H62.5064V5.56ZM62.4464 20V20.3H62.7464V20H62.4464ZM60.1464 20H59.8464V20.3H60.1464V20ZM60.1464 9.86V9.56H59.8464V9.86H60.1464ZM62.4464 9.86H62.7464V9.56H62.4464V9.86ZM62.5064 7.64H60.0864V8.24H62.5064V7.64ZM60.3864 7.94V5.56H59.7864V7.94H60.3864ZM60.0864 5.86H62.5064V5.26H60.0864V5.86ZM62.2064 5.56V7.94H62.8064V5.56H62.2064ZM62.4464 19.7H60.1464V20.3H62.4464V19.7ZM60.4464 20V9.86H59.8464V20H60.4464ZM60.1464 10.16H62.4464V9.56H60.1464V10.16ZM62.1464 9.86V20H62.7464V9.86H62.1464ZM68.9352 20.1L68.8763 20.3942L68.8785 20.3946L68.9352 20.1ZM67.9152 19.82L68.0133 19.5365L67.6152 19.3987V19.82H67.9152ZM67.9152 24.26V24.56H68.2152V24.26H67.9152ZM65.6152 24.26H65.3152V24.56H65.6152V24.26ZM65.6152 9.86V9.56H65.3152V9.86H65.6152ZM67.7952 9.86H68.0952V9.56H67.7952V9.86ZM67.7952 11.24H67.4952V11.9643L68.0073 11.4521L67.7952 11.24ZM69.3952 9.98L69.2643 9.71005L69.2643 9.71005L69.3952 9.98ZM73.1352 18.92L72.9076 18.7245L72.9076 18.7245L73.1352 18.92ZM69.1752 12.08L69.3136 12.3462L69.3174 12.3441L69.1752 12.08ZM67.9152 13.1L67.703 12.8879L67.6152 12.9757V13.1H67.9152ZM67.9152 17.74H67.6152V17.9416L67.8018 18.0178L67.9152 17.74ZM71.3752 17.42L71.1287 17.2489L71.1287 17.2489L71.3752 17.42ZM71.4152 12.42L71.1704 12.5937L71.1742 12.5988L71.4152 12.42ZM69.9552 19.9C69.6419 19.9 69.3209 19.8687 68.9918 19.8054L68.8785 20.3946C69.2427 20.4646 69.6017 20.5 69.9552 20.5V19.9ZM68.994 19.8058C68.675 19.742 68.3481 19.6524 68.0133 19.5365L67.817 20.1035C68.1755 20.2276 68.5287 20.3246 68.8763 20.3942L68.994 19.8058ZM67.6152 19.82V24.26H68.2152V19.82H67.6152ZM67.9152 23.96H65.6152V24.56H67.9152V23.96ZM65.9152 24.26V9.86H65.3152V24.26H65.9152ZM65.6152 10.16H67.7952V9.56H65.6152V10.16ZM67.4952 9.86V11.24H68.0952V9.86H67.4952ZM68.0073 11.4521C68.6262 10.8332 69.1313 10.4413 69.526 10.2499L69.2643 9.71005C68.779 9.94536 68.2174 10.3935 67.583 11.0279L68.0073 11.4521ZM69.526 10.2499C69.926 10.056 70.3414 9.96 70.7752 9.96V9.36C70.2489 9.36 69.7443 9.47733 69.2643 9.71005L69.526 10.2499ZM70.7752 9.96C71.7951 9.96 72.5541 10.3346 73.0924 11.0762L73.5779 10.7238C72.9162 9.81209 71.9686 9.36 70.7752 9.36V9.96ZM73.0924 11.0762C73.6416 11.8329 73.9352 12.922 73.9352 14.38H74.5352C74.5352 12.8513 74.2287 11.6204 73.5779 10.7238L73.0924 11.0762ZM73.9352 14.38V15.46H74.5352V14.38H73.9352ZM73.9352 15.46C73.9352 16.863 73.5819 17.9398 72.9076 18.7245L73.3627 19.1155C74.155 18.1935 74.5352 16.9637 74.5352 15.46H73.9352ZM72.9076 18.7245C72.2443 19.4964 71.2765 19.9 69.9552 19.9V20.5C71.4072 20.5 72.5594 20.0503 73.3627 19.1155L72.9076 18.7245ZM70.1552 11.5C69.7867 11.5 69.4112 11.6122 69.0329 11.8159L69.3174 12.3441C69.6324 12.1745 69.9103 12.1 70.1552 12.1V11.5ZM69.0368 11.8138C68.6617 12.0089 68.2155 12.3754 67.703 12.8879L68.1273 13.3121C68.6282 12.8112 69.022 12.4978 69.3136 12.3462L69.0368 11.8138ZM67.6152 13.1V17.74H68.2152V13.1H67.6152ZM67.8018 18.0178C68.4811 18.295 69.1201 18.44 69.7152 18.44V17.84C69.2169 17.84 68.6559 17.7183 68.0285 17.4622L67.8018 18.0178ZM69.7152 18.44C70.5517 18.44 71.2148 18.1769 71.6216 17.5911L71.1287 17.2489C70.8689 17.6231 70.4252 17.84 69.7152 17.84V18.44ZM71.6216 17.5911C72.0015 17.044 72.1752 16.3234 72.1752 15.46H71.5752C71.5752 16.2499 71.4155 16.836 71.1287 17.2489L71.6216 17.5911ZM72.1752 15.46V14.38H71.5752V15.46H72.1752ZM72.1752 14.38C72.1752 13.4646 72.0204 12.7322 71.6561 12.2412L71.1742 12.5988C71.4233 12.9345 71.5752 13.5087 71.5752 14.38H72.1752ZM71.6598 12.2464C71.3052 11.7467 70.7901 11.5 70.1552 11.5V12.1C70.6136 12.1 70.9384 12.2666 71.1705 12.5936L71.6598 12.2464ZM80.2242 20.1L80.1654 20.3942L80.1676 20.3946L80.2242 20.1ZM79.2042 19.82L79.3024 19.5365L78.9042 19.3987V19.82H79.2042ZM79.2042 24.26V24.56H79.5042V24.26H79.2042ZM76.9042 24.26H76.6042V24.56H76.9042V24.26ZM76.9042 9.86V9.56H76.6042V9.86H76.9042ZM79.0842 9.86H79.3842V9.56H79.0842V9.86ZM79.0842 11.24H78.7842V11.9643L79.2964 11.4521L79.0842 11.24ZM80.6842 9.98L80.5533 9.71005L80.5533 9.71005L80.6842 9.98ZM84.4242 18.92L84.1967 18.7245L84.1967 18.7245L84.4242 18.92ZM80.4642 12.08L80.6026 12.3462L80.6064 12.3441L80.4642 12.08ZM79.2042 13.1L78.9921 12.8879L78.9042 12.9757V13.1H79.2042ZM79.2042 17.74H78.9042V17.9416L79.0908 18.0178L79.2042 17.74ZM82.6642 17.42L82.4178 17.2489L82.4178 17.2489L82.6642 17.42ZM82.7042 12.42L82.4595 12.5937L82.4633 12.5988L82.7042 12.42ZM81.2442 19.9C80.931 19.9 80.61 19.8687 80.2809 19.8054L80.1676 20.3946C80.5318 20.4646 80.8908 20.5 81.2442 20.5V19.9ZM80.2831 19.8058C79.964 19.742 79.6372 19.6524 79.3024 19.5365L79.1061 20.1035C79.4646 20.2276 79.8177 20.3246 80.1654 20.3942L80.2831 19.8058ZM78.9042 19.82V24.26H79.5042V19.82H78.9042ZM79.2042 23.96H76.9042V24.56H79.2042V23.96ZM77.2042 24.26V9.86H76.6042V24.26H77.2042ZM76.9042 10.16H79.0842V9.56H76.9042V10.16ZM78.7842 9.86V11.24H79.3842V9.86H78.7842ZM79.2964 11.4521C79.9153 10.8332 80.4204 10.4413 80.8151 10.2499L80.5533 9.71005C80.068 9.94536 79.5065 10.3935 78.8721 11.0279L79.2964 11.4521ZM80.8151 10.2499C81.2151 10.056 81.6304 9.96 82.0642 9.96V9.36C81.538 9.36 81.0333 9.47733 80.5533 9.71005L80.8151 10.2499ZM82.0642 9.96C83.0841 9.96 83.8431 10.3346 84.3814 11.0762L84.867 10.7238C84.2053 9.81209 83.2576 9.36 82.0642 9.36V9.96ZM84.3814 11.0762C84.9306 11.8329 85.2242 12.922 85.2242 14.38H85.8242C85.8242 12.8513 85.5178 11.6204 84.867 10.7238L84.3814 11.0762ZM85.2242 14.38V15.46H85.8242V14.38H85.2242ZM85.2242 15.46C85.2242 16.863 84.871 17.9398 84.1967 18.7245L84.6517 19.1155C85.4441 18.1935 85.8242 16.9637 85.8242 15.46H85.2242ZM84.1967 18.7245C83.5333 19.4964 82.5656 19.9 81.2442 19.9V20.5C82.6962 20.5 83.8484 20.0503 84.6517 19.1155L84.1967 18.7245ZM81.4442 11.5C81.0758 11.5 80.7003 11.6122 80.322 11.8159L80.6064 12.3441C80.9215 12.1745 81.1993 12.1 81.4442 12.1V11.5ZM80.3258 11.8138C79.9507 12.0089 79.5045 12.3754 78.9921 12.8879L79.4164 13.3121C79.9172 12.8112 80.311 12.4978 80.6026 12.3462L80.3258 11.8138ZM78.9042 13.1V17.74H79.5042V13.1H78.9042ZM79.0908 18.0178C79.7702 18.295 80.4092 18.44 81.0042 18.44V17.84C80.5059 17.84 79.9449 17.7183 79.3176 17.4622L79.0908 18.0178ZM81.0042 18.44C81.8408 18.44 82.5038 18.1769 82.9106 17.5911L82.4178 17.2489C82.1579 17.6231 81.7143 17.84 81.0042 17.84V18.44ZM82.9106 17.5911C83.2906 17.044 83.4642 16.3234 83.4642 15.46H82.8642C82.8642 16.2499 82.7045 16.836 82.4178 17.2489L82.9106 17.5911ZM83.4642 15.46V14.38H82.8642V15.46H83.4642ZM83.4642 14.38C83.4642 13.4646 83.3094 12.7322 82.9451 12.2412L82.4633 12.5988C82.7124 12.9345 82.8642 13.5087 82.8642 14.38H83.4642ZM82.9489 12.2464C82.5943 11.7467 82.0791 11.5 81.4442 11.5V12.1C81.9026 12.1 82.2275 12.2666 82.4596 12.5936L82.9489 12.2464Z" fill="#A855F7"/>
</svg>
